# Blender 4.5.2 LTS
# www.blender.org
mtllib Mesh_SQUARE_Area.mtl
o Cylinder.001
v 0.000000 0.000655 3.093744
v 0.000000 -0.000655 0.014612
v -0.603559 0.000655 3.086359
v -0.002851 -0.000655 0.014331
v -1.420892 0.000655 3.084443
v -0.005592 -0.000655 0.013499
v -2.272435 0.000655 3.083989
v -0.008118 -0.000655 0.012149
v -3.083776 0.000655 3.079827
v -0.010332 -0.000655 0.010332
v -3.083989 0.000655 2.113020
v -0.012149 -0.000655 0.008118
v -3.088632 0.000655 1.371344
v -0.013499 -0.000655 0.005592
v -3.091146 0.000655 0.737123
v -0.014331 -0.000655 0.002851
v -3.093744 0.000655 0.000000
v -0.014612 -0.000655 -0.000000
v 0.603559 0.000655 3.086359
v 0.002851 -0.000655 0.014331
v 1.420892 0.000655 3.084443
v 0.005592 -0.000655 0.013499
v 2.272435 0.000655 3.083989
v 0.008118 -0.000655 0.012149
v 3.083776 0.000655 3.079827
v 0.010332 -0.000655 0.010332
v 3.083989 0.000655 2.113020
v 0.012149 -0.000655 0.008118
v 3.088632 0.000655 1.371344
v 0.013500 -0.000655 0.005592
v 3.091146 0.000655 0.737123
v 0.014331 -0.000655 0.002851
v 3.093744 0.000655 0.000000
v 0.014612 -0.000655 -0.000000
v 0.000000 0.000655 -3.093744
v 0.000000 -0.000655 -0.014612
v -0.603559 0.000655 -3.086359
v -0.002851 -0.000655 -0.014331
v -1.420892 0.000655 -3.084443
v -0.005592 -0.000655 -0.013500
v -2.272435 0.000655 -3.083989
v -0.008118 -0.000655 -0.012149
v -3.083776 0.000655 -3.079827
v -0.010332 -0.000655 -0.010332
v -3.083989 0.000655 -2.113020
v -0.012149 -0.000655 -0.008118
v -3.088632 0.000655 -1.371344
v -0.013499 -0.000655 -0.005592
v -3.091146 0.000655 -0.737123
v -0.014331 -0.000655 -0.002851
v 0.603559 0.000655 -3.086359
v 0.002851 -0.000655 -0.014331
v 1.420892 0.000655 -3.084443
v 0.005592 -0.000655 -0.013500
v 2.272435 0.000655 -3.083989
v 0.008118 -0.000655 -0.012149
v 3.083776 0.000655 -3.079827
v 0.010332 -0.000655 -0.010332
v 3.083989 0.000655 -2.113020
v 0.012149 -0.000655 -0.008118
v 3.088632 0.000655 -1.371344
v 0.013500 -0.000655 -0.005592
v 3.091146 0.000655 -0.737123
v 0.014331 -0.000655 -0.002851
vn -0.0000 1.0000 -0.0004
vn 0.0004 1.0000 -0.0000
vn -0.0004 1.0000 -0.0000
vn -0.0000 1.0000 0.0004
vt 1.000070 0.000000
vt 1.000070 1.000000
vt 0.875194 1.000000
vt 0.875194 0.000000
vt 0.750318 1.000000
vt 0.750318 0.000000
vt 0.625442 1.000000
vt 0.625442 0.000000
vt 0.500566 1.000000
vt 0.500566 0.000000
vt 0.375690 1.000000
vt 0.375690 0.000000
vt 0.250814 1.000000
vt 0.250814 0.000000
vt 0.125938 1.000000
vt 0.125938 0.000000
vt 0.001062 1.000000
vt 0.001062 0.000000
s 0
f 1/1/1 2/2/1 4/3/1 3/4/1
f 3/4/1 4/3/1 6/5/1 5/6/1
f 5/6/1 6/5/1 8/7/1 7/8/1
f 7/8/1 8/7/1 10/9/1 9/10/1
f 9/10/2 10/9/2 12/11/2 11/12/2
f 11/12/2 12/11/2 14/13/2 13/14/2
f 13/14/2 14/13/2 16/15/2 15/16/2
f 15/16/2 16/15/2 18/17/2 17/18/2
f 1/1/1 19/4/1 20/3/1 2/2/1
f 19/4/1 21/6/1 22/5/1 20/3/1
f 21/6/1 23/8/1 24/7/1 22/5/1
f 23/8/1 25/10/1 26/9/1 24/7/1
f 25/10/3 27/12/3 28/11/3 26/9/3
f 27/12/3 29/14/3 30/13/3 28/11/3
f 29/14/3 31/16/3 32/15/3 30/13/3
f 31/16/3 33/18/3 34/17/3 32/15/3
f 35/1/4 37/4/4 38/3/4 36/2/4
f 37/4/4 39/6/4 40/5/4 38/3/4
f 39/6/4 41/8/4 42/7/4 40/5/4
f 41/8/4 43/10/4 44/9/4 42/7/4
f 43/10/2 45/12/2 46/11/2 44/9/2
f 45/12/2 47/14/2 48/13/2 46/11/2
f 47/14/2 49/16/2 50/15/2 48/13/2
f 49/16/2 17/18/2 18/17/2 50/15/2
f 35/1/4 36/2/4 52/3/4 51/4/4
f 51/4/4 52/3/4 54/5/4 53/6/4
f 53/6/4 54/5/4 56/7/4 55/8/4
f 55/8/4 56/7/4 58/9/4 57/10/4
f 57/10/3 58/9/3 60/11/3 59/12/3
f 59/12/3 60/11/3 62/13/3 61/14/3
f 61/14/3 62/13/3 64/15/3 63/16/3
f 63/16/3 64/15/3 34/17/3 33/18/3
